<?xml version="1.0" encoding="UTF-8"?>
<svg version="1.1" xmlns="http://www.w3.org/2000/svg" width="200" height="200">
<path d="M0 0 C66 0 132 0 200 0 C200 66 200 132 200 200 C134 200 68 200 0 200 C0 134 0 68 0 0 Z " fill="#7200E0" transform="translate(0,0)"/>
<path d="M0 0 C44.87549407 0 44.87549407 0 54.01171875 8.9765625 C61.82642844 18.24936267 62.98042313 28.15322047 62 40 C60.60618617 48.4325737 56.71580663 54.28419337 50.75 60.25 C40.25742738 66.92709167 30.41668625 66.48166946 18.375 66.25 C12.31125 66.1675 6.2475 66.085 0 66 C0 44.22 0 22.44 0 0 Z " fill="#FBF8FC" transform="translate(101,66)"/>
<path d="M0 0 C16.17 0 32.34 0 49 0 C49 3.63 49 7.26 49 11 C37.78 11 26.56 11 15 11 C15 16.28 15 21.56 15 27 C24.9 27 34.8 27 45 27 C45 30.63 45 34.26 45 38 C35.1 38 25.2 38 15 38 C15 46.91 15 55.82 15 65 C10.05 65 5.1 65 0 65 C0 43.55 0 22.1 0 0 Z " fill="#FDFBFD" transform="translate(38,67)"/>
<path d="M0 0 C21.64556962 0 21.64556962 0 27.6796875 5.54296875 C32.54321309 12.23428991 32.24301837 21.10055751 31 29 C29.32390407 33.68515004 26.46341967 37.6288083 22 40 C14.80165024 41.43966995 7.34090518 41 0 41 C0 27.47 0 13.94 0 0 Z " fill="#7202DC" transform="translate(116,79)"/>
<path d="M0 0 C10.89 0 21.78 0 33 0 C33 0.33 33 0.66 33 1 C24 3 24 3 3 3 C2.67 23.46 2.34 43.92 2 65 C10.3840625 64.7834375 10.3840625 64.7834375 18.9375 64.5625 C21.58640259 64.49784546 21.58640259 64.49784546 24.28881836 64.43188477 C25.6808374 64.39377644 27.07284667 64.35530856 28.46484375 64.31640625 C29.19384888 64.29993042 29.922854 64.28345459 30.6739502 64.26647949 C34.12951786 64.46708492 34.12951786 64.46708492 37 63 C38.99958364 62.95919217 41.00045254 62.95745644 43 63 C43 62.34 43 61.68 43 61 C45.90548882 58.95830515 47.40142046 58 51 58 C51.33 57.01 51.66 56.02 52 55 C52.99 55.33 53.98 55.66 55 56 C43.85031722 66.66491396 33.05105704 66.532352 18.375 66.25 C12.31125 66.1675 6.2475 66.085 0 66 C0 44.22 0 22.44 0 0 Z " fill="#F5DAFC" transform="translate(101,66)"/>
<path d="M0 0 C17.16 0 34.32 0 52 0 C52 0.33 52 0.66 52 1 C35.83 1 19.66 1 3 1 C3 22.45 3 43.9 3 66 C1.35 66 -0.3 66 -2 66 C-1.01 65.505 -1.01 65.505 0 65 C0 43.55 0 22.1 0 0 Z " fill="#8633D2" transform="translate(35,66)"/>
<path d="M0 0 C0.99 0.33 1.98 0.66 3 1 C3 1.66 3 2.32 3 3 C3.66 3 4.32 3 5 3 C5.20496094 3.78246094 5.40992188 4.56492187 5.62109375 5.37109375 C5.89050781 6.38300781 6.15992188 7.39492187 6.4375 8.4375 C6.70433594 9.44683594 6.97117188 10.45617187 7.24609375 11.49609375 C7.75978077 13.91752001 7.75978077 13.91752001 9 15 C9.28484531 17.48222341 9.44806553 19.96468855 9.62109375 22.45703125 C10.00697167 25.04678926 10.78067904 26.71076105 12 29 C12.51316889 32.93429482 12.17834015 34.67516615 10.25 38.1875 C8.27509451 40.65613186 6.69384349 42.3836939 4 44 C3.34 44 2.68 44 2 44 C1.79375 44.556875 1.5875 45.11375 1.375 45.6875 C-0.57683032 48.97012371 -2.94230994 50.70673246 -6 53 C-6.66 53 -7.32 53 -8 53 C-8 53.99 -8 54.98 -8 56 C-13.45315628 56.92107666 -18.6907242 57.13255632 -24.21484375 57.09765625 C-25.07058487 57.0962413 -25.92632599 57.09482635 -26.80799866 57.09336853 C-29.51786931 57.0878099 -32.22765468 57.07526525 -34.9375 57.0625 C-36.78450401 57.05747965 -38.63150932 57.05291768 -40.47851562 57.04882812 C-44.98570951 57.03785405 -49.49284034 57.0206183 -54 57 C-54 56.67 -54 56.34 -54 56 C-52.41300293 55.99383667 -52.41300293 55.99383667 -50.79394531 55.98754883 C-46.81251417 55.9655313 -42.83203996 55.91101423 -38.85107422 55.84741211 C-37.13860347 55.824427 -35.42599527 55.80988285 -33.71337891 55.80444336 C-17.2457612 55.80837997 -17.2457612 55.80837997 -2.98828125 48.2277832 C4.63436189 40.04232211 6.46660258 30.46513504 6.328125 19.65234375 C5.6962856 12.61936944 3.24594048 6.22869659 0 0 Z " fill="#6E0BCE" transform="translate(156,76)"/>
<path d="M0 0 C13.86 0 27.72 0 42 0 C42 0.33 42 0.66 42 1 C28.61194042 2.00635079 15.4815212 2 2 2 C2 22.46 2 42.92 2 64 C7.445 63.505 7.445 63.505 13 63 C12.97679687 61.36289063 12.95359375 59.72578125 12.9296875 58.0390625 C12.91093297 55.90104621 12.89273243 53.76302501 12.875 51.625 C12.85824219 50.54476562 12.84148438 49.46453125 12.82421875 48.3515625 C12.81777344 47.3203125 12.81132813 46.2890625 12.8046875 45.2265625 C12.79421387 44.27346191 12.78374023 43.32036133 12.77294922 42.33837891 C13 40 13 40 15 38 C15 46.91 15 55.82 15 65 C10.05 65 5.1 65 0 65 C0 43.55 0 22.1 0 0 Z " fill="#FEE9FE" transform="translate(38,67)"/>
<path d="M0 0 C20 0 20 0 25 3 C23.68 3.33 22.36 3.66 21 4 C21 3.34 21 2.68 21 2 C15.06 2.33 9.12 2.66 3 3 C3 15.21 3 27.42 3 40 C7.95 39.67 12.9 39.34 18 39 C18 38.34 18 37.68 18 37 C19.98 37 21.96 37 24 37 C24 36.01 24 35.02 24 34 C24.99 34 25.98 34 27 34 C25.63016497 37.16115776 25.0109362 37.9927092 22 40 C14.80165024 41.43966995 7.34090518 41 0 41 C0 27.47 0 13.94 0 0 Z " fill="#6E10C4" transform="translate(116,79)"/>
<path d="M0 0 C1.54505999 0.03562153 3.08998795 0.07726203 4.63476562 0.12353516 C5.45545532 0.14477448 6.27614502 0.16601379 7.1217041 0.18789673 C8.86701085 0.2342819 10.6122513 0.28321948 12.35742188 0.33447266 C15.00182009 0.41145659 17.64633087 0.47909508 20.29101562 0.54541016 C21.98894782 0.59171922 23.68686514 0.63857767 25.38476562 0.68603516 C26.55718811 0.71580948 26.55718811 0.71580948 27.7532959 0.7461853 C32.4346899 0.88951235 36.97188929 1.29884758 41.60119629 2.02651978 C43.87292211 2.22036864 43.87292211 2.22036864 46.54101562 0.03759766 C46.54101562 2.34759766 46.54101562 4.65759766 46.54101562 7.03759766 C47.86101562 7.69759766 49.18101562 8.35759766 50.54101562 9.03759766 C50.54101562 10.02759766 50.54101562 11.01759766 50.54101562 12.03759766 C49.58195312 11.17134766 49.58195312 11.17134766 48.60351562 10.28759766 C40.26043854 4.15799001 31.8330893 2.9693917 21.63867188 2.72119141 C20.99700073 2.70254028 20.35532959 2.68388916 19.69421387 2.66467285 C17.33076813 2.59712985 14.96712877 2.53650362 12.60351562 2.47509766 C7.30289063 2.33072266 2.00226563 2.18634766 -3.45898438 2.03759766 C-3.45898438 23.81759766 -3.45898438 45.59759766 -3.45898438 68.03759766 C-3.78898437 68.03759766 -4.11898437 68.03759766 -4.45898438 68.03759766 C-4.48211049 59.31915763 -4.49990083 50.60072809 -4.51079655 41.88226414 C-4.51602479 37.83434024 -4.52312136 33.78643725 -4.53442383 29.73852539 C-4.54525481 25.83523794 -4.55126165 21.93197067 -4.55386162 18.02866936 C-4.55571549 16.53626119 -4.55933538 15.04385417 -4.56471443 13.55145454 C-4.57192768 11.46811626 -4.5729752 9.38486234 -4.57250977 7.30151367 C-4.57473038 6.11348648 -4.57695099 4.92545929 -4.57923889 3.70143127 C-4.39764969 -0.32106553 -4.14996617 0.04510833 0 0 Z " fill="#7A2BBF" transform="translate(104.458984375,63.96240234375)"/>
<path d="M0 0 C0.66 0 1.32 0 2 0 C2.05386629 2.12472576 2.09273071 4.24983652 2.125 6.375 C2.14820313 7.55835937 2.17140625 8.74171875 2.1953125 9.9609375 C2 13 2 13 0 15 C-2.87329102 15.30297852 -2.87329102 15.30297852 -6.50390625 15.37890625 C-7.80134766 15.41306641 -9.09878906 15.44722656 -10.43554688 15.48242188 C-11.81118496 15.50977413 -13.18683647 15.53645863 -14.5625 15.5625 C-17.25152003 15.62020971 -19.94010631 15.68571689 -22.62890625 15.75390625 C-24.4243689 15.78979858 -24.4243689 15.78979858 -26.25610352 15.82641602 C-28.91121429 15.69086348 -28.91121429 15.69086348 -30 17 C-30.04092937 19.33297433 -30.04241723 21.66705225 -30 24 C-27.48322887 25.25838557 -25.58706712 25.20818973 -22.7734375 25.31640625 C-21.7421875 25.35830078 -20.7109375 25.40019531 -19.6484375 25.44335938 C-18.56820312 25.48267578 -17.48796875 25.52199219 -16.375 25.5625 C-14.74304688 25.62727539 -14.74304688 25.62727539 -13.078125 25.69335938 C-10.3855483 25.7996453 -7.69287747 25.90168057 -5 26 C-5 26.33 -5 26.66 -5 27 C-14.24 27 -23.48 27 -33 27 C-33 22.38 -33 17.76 -33 13 C-22.11 13 -11.22 13 0 13 C0 8.71 0 4.42 0 0 Z " fill="#6B0DC4" transform="translate(87,66)"/>
<path d="M0 0 C0.33 0 0.66 0 1 0 C1.22162329 1.62324086 1.42689803 3.248721 1.625 4.875 C1.79902344 6.23238281 1.79902344 6.23238281 1.9765625 7.6171875 C1.98429687 8.40351562 1.99203125 9.18984375 2 10 C0 12 0 12 -2.79736328 12.22705078 C-3.95993652 12.21657715 -5.12250977 12.20610352 -6.3203125 12.1953125 C-8.20556641 12.18564453 -8.20556641 12.18564453 -10.12890625 12.17578125 C-11.44761719 12.15902344 -12.76632813 12.14226562 -14.125 12.125 C-15.46483721 12.11496983 -16.80468152 12.10584404 -18.14453125 12.09765625 C-21.42976376 12.07402148 -24.71490398 12.0381495 -28 12 C-28 20.25 -28 28.5 -28 37 C-28.66 37 -29.32 37 -30 37 C-30 28.09 -30 19.18 -30 10 C-20.1 10 -10.2 10 0 10 C0 6.7 0 3.4 0 0 Z " fill="#7220BE" transform="translate(83,95)"/>
<path d="M0 0 C9.9 0 19.8 0 30 0 C30 3.63 30 7.26 30 11 C20.1 11 10.2 11 0 11 C0 10.34 0 9.68 0 9 C9.24 9 18.48 9 28 9 C27.67 6.69 27.34 4.38 27 2 C18.09 1.67 9.18 1.34 0 1 C0 0.67 0 0.34 0 0 Z " fill="#F1D4FD" transform="translate(53,94)"/>
<path d="M0 0 C0.33 0 0.66 0 1 0 C1 13.2 1 26.4 1 40 C9.415 39.505 9.415 39.505 18 39 C18 38.34 18 37.68 18 37 C19.98 37 21.96 37 24 37 C24 36.01 24 35.02 24 34 C24.99 34 25.98 34 27 34 C25.63016497 37.16115776 25.0109362 37.9927092 22 40 C14.80165024 41.43966995 7.34090518 41 0 41 C0 27.47 0 13.94 0 0 Z " fill="#7729BD" transform="translate(116,79)"/>
<path d="M0 0 C0.495 0.99 0.495 0.99 1 2 C-1.81979775 6.66351166 -4.60417387 9.75091112 -9 13 C-9.66 13 -10.32 13 -11 13 C-11 13.99 -11 14.98 -11 16 C-16.45315628 16.92107666 -21.6907242 17.13255632 -27.21484375 17.09765625 C-28.07058487 17.0962413 -28.92632599 17.09482635 -29.80799866 17.09336853 C-32.51786931 17.0878099 -35.22765468 17.07526525 -37.9375 17.0625 C-39.78450401 17.05747965 -41.63150932 17.05291768 -43.47851562 17.04882812 C-47.98570951 17.03785405 -52.49284034 17.0206183 -57 17 C-57 16.67 -57 16.34 -57 16 C-55.41300293 15.99383667 -55.41300293 15.99383667 -53.79394531 15.98754883 C-49.81251417 15.9655313 -45.83203996 15.91101423 -41.85107422 15.84741211 C-40.13860347 15.824427 -38.42599527 15.80988285 -36.71337891 15.80444336 C-20.17370802 15.84209283 -20.17370802 15.84209283 -5.95410156 8.12817383 C-4.47346131 6.48431519 -3.21580674 4.84557714 -2 3 C-1.34 2.01 -0.68 1.02 0 0 Z " fill="#7123BB" transform="translate(159,116)"/>
<path d="M0 0 C14.19 0 28.38 0 43 0 C43 0.99 43 1.98 43 3 C40.87489788 3 38.74973783 2.976847 36.625 2.9375 C33.56463946 2.99026484 30.95892691 3.28268439 28 4 C28 3.34 28 2.68 28 2 C26.80503906 2.08378906 25.61007813 2.16757813 24.37890625 2.25390625 C7.74621351 3.3492427 7.74621351 3.3492427 1 2 C0.67 1.34 0.34 0.68 0 0 Z " fill="#6E04D0" transform="translate(100,132)"/>
<path d="M0 0 C0.99 0.33 1.98 0.66 3 1 C-2.58778606 6.34483884 -8.80052186 10.81171806 -16.8046875 11.1015625 C-17.52914062 11.06804687 -18.25359375 11.03453125 -19 11 C-16.44931155 8.64551835 -15.28982642 8.01672076 -11.75 7.8125 C-10.38875 7.9053125 -10.38875 7.9053125 -9 8 C-9 7.34 -9 6.68 -9 6 C-6.09451118 3.95830515 -4.59857954 3 -1 3 C-0.67 2.01 -0.34 1.02 0 0 Z " fill="#F2D7FC" transform="translate(153,121)"/>
<path d="M0 0 C0.33 0.99 0.66 1.98 1 3 C-2.51827628 4.59245395 -5.22697352 5.24261382 -9.08203125 5.1953125 C-10.01337891 5.18886719 -10.94472656 5.18242188 -11.90429688 5.17578125 C-12.86400391 5.15902344 -13.82371094 5.14226562 -14.8125 5.125 C-15.79154297 5.11597656 -16.77058594 5.10695313 -17.77929688 5.09765625 C-20.18645061 5.07417182 -22.59309743 5.0413284 -25 5 C-25 4.67 -25 4.34 -25 4 C-23.85402344 3.95101562 -22.70804687 3.90203125 -21.52734375 3.8515625 C-19.99737465 3.77647199 -18.46742782 3.70092694 -16.9375 3.625 C-16.18533203 3.5940625 -15.43316406 3.563125 -14.65820312 3.53125 C-6.77305741 3.32739418 -6.77305741 3.32739418 0 0 Z " fill="#F7DFFD" transform="translate(141,116)"/>
<path d="M0 0 C0.99 0.33 1.98 0.66 3 1 C3 1.66 3 2.32 3 3 C3.66 3 4.32 3 5 3 C6.75747614 7.50353262 7.19294408 11.17639811 7 16 C5.56645606 13.17791126 4.22438695 10.3293258 2.9375 7.4375 C2.59589844 6.67308594 2.25429687 5.90867187 1.90234375 5.12109375 C1 3 1 3 0 0 Z " fill="#701EBE" transform="translate(156,76)"/>
<path d="M0 0 C8.6309795 3.85421412 8.6309795 3.85421412 11 8 C9.35 8.33 7.7 8.66 6 9 C6 7.35 6 5.7 6 4 C4.35 3.67 2.7 3.34 1 3 C0.67 2.01 0.34 1.02 0 0 Z " fill="#EFD6FB" transform="translate(145,69)"/>
</svg>
